<?xml version="1.0" standalone="no"?>
<!DOCTYPE svg PUBLIC "-//W3C//DTD SVG 1.1//EN" "http://www.w3.org/Graphics/SVG/1.1/DTD/svg11.dtd" >
<svg xmlns="http://www.w3.org/2000/svg" xmlns:xlink="http://www.w3.org/1999/xlink" version="1.1">
<metadata></metadata>
<defs>
<font id="adelle_sansthin" horiz-adv-x="1167" >
<font-face units-per-em="2048" ascent="1546" descent="-502" />
<missing-glyph horiz-adv-x="495" />
<glyph unicode="&#xfb01;" horiz-adv-x="1103" d="M47 952v88h164v209q0 314 258 314q94 0 162 -31l-6 -82q-79 27 -150 27q-164 0 -164 -195v-242h607v-1040h-101v952h-506v-952h-100v952h-164zM778 1386q0 43 25 66t69 23q45 0 70 -23.5t25 -65.5q0 -41 -25 -63.5t-70 -22.5q-44 0 -69 22.5t-25 63.5z" />
<glyph unicode="&#xfb02;" horiz-adv-x="1103" d="M47 952v88h164v209q0 314 258 314q94 0 162 -31l-6 -82q-79 27 -150 27q-164 0 -164 -195v-242h299v-88h-299v-952h-100v952h-164zM817 0v1546h101v-1546h-101z" />
<glyph unicode="&#xfb03;" horiz-adv-x="1712" d="M47 952v88h164v209q0 314 264 314q94 0 162 -31l-4 -82q-79 27 -154 27q-80 0 -124 -44t-44 -153v-240h506v209q0 314 258 314q94 0 162 -31l-6 -82q-79 27 -150 27q-163 0 -163 -195v-242h299v-88h-299v-952h-101v952h-506v-952h-100v952h-164zM1386 1386q0 42 25 65.5 t70 23.5q44 0 69 -23t25 -66q0 -41 -25 -63.5t-69 -22.5q-45 0 -70 22.5t-25 63.5zM1425 0v1040h101v-1040h-101z" />
<glyph unicode="&#xfb04;" horiz-adv-x="1710" d="M47 952v88h164v209q0 314 258 314q94 0 162 -31l-6 -82q-79 27 -150 27q-164 0 -164 -195v-242h506v209q0 314 258 314q94 0 162 -31l-6 -82q-79 27 -150 27q-163 0 -163 -195v-242h299v-88h-299v-952h-101v952h-506v-952h-100v952h-164zM1423 0v1546h101v-1546h-101z " />
<glyph horiz-adv-x="0" />
<glyph horiz-adv-x="682" />
<glyph unicode=" "  horiz-adv-x="495" />
<glyph unicode="&#x09;" horiz-adv-x="495" />
<glyph unicode="&#xa0;" horiz-adv-x="495" />
<glyph unicode="!" horiz-adv-x="509" d="M152 80q0 102 104 102q106 0 106 -102q0 -105 -106 -105q-104 0 -104 105zM193 1483h120l-24 -1116h-66z" />
<glyph unicode="&#x22;" horiz-adv-x="759" d="M143 952v531h121v-531h-121zM496 952v531h120v-531h-120z" />
<glyph unicode="#" horiz-adv-x="1243" d="M76 303l24 78h260l62 389h-266l20 80h260l43 262h88l-41 -262h293l39 262h90l-37 -262h267l-19 -80h-262l-57 -389h262l-19 -78h-258l-45 -303h-90l45 303h-297l-47 -303h-90l43 303h-268zM451 381h297l59 389h-293z" />
<glyph unicode="$" horiz-adv-x="1054" d="M86 395l98 25q29 -157 100.5 -232t217.5 -82v582q-38 11 -60.5 18t-57.5 20.5t-57 25t-51 29.5t-46.5 37.5t-37 47t-30.5 58t-18 70t-7 85.5q0 87 30.5 157.5t83 115t116.5 70t137 32.5v168h84v-168q151 -17 235.5 -100.5t110.5 -247.5l-100 -21q-12 58 -28 101 t-43.5 82.5t-71.5 63t-103 30.5v-600q46 -15 75.5 -25t71 -28.5t68 -36.5t56 -46t46.5 -60t28 -76.5t11 -96.5q0 -157 -93.5 -256t-260.5 -114v-185h-82v180q-179 6 -287.5 94t-134.5 283zM242 1081q0 -53 14 -96t36.5 -72.5t58 -54t70 -39.5t81.5 -31v574q-72 -5 -125 -31 t-81 -67t-41 -86t-13 -97zM588 109q113 14 180.5 82t67.5 186q0 64 -18.5 112.5t-56 81t-77 52.5t-96.5 39v-553z" />
<glyph unicode="%" horiz-adv-x="1597" d="M104 1126q0 170 88 276.5t244 106.5q158 0 235 -95t77 -261q0 -174 -86 -280.5t-242 -106.5q-85 0 -148.5 30t-99 82t-52 113.5t-16.5 134.5zM215 1135q0 -281 209 -281q211 0 211 291q0 274 -203 274q-49 0 -88 -18t-63 -46.5t-39 -67.5t-21 -76t-6 -76zM283 -37 l899 1520h104l-899 -1520h-104zM846 336q0 170 88 276.5t244 106.5q158 0 234.5 -95.5t76.5 -261.5q0 -174 -86 -280.5t-242 -106.5q-85 0 -148 30t-98.5 82t-52 114t-16.5 135zM956 344q0 -281 209 -281q211 0 211 291q0 275 -202 275q-61 0 -106 -27t-68 -71t-33.5 -90.5 t-10.5 -96.5z" />
<glyph unicode="&#x26;" horiz-adv-x="1368" d="M131 367q0 145 67 243t201 174q-43 84 -63.5 149.5t-20.5 147.5q0 142 90.5 243t239.5 101q37 0 71 -5.5t72.5 -23t66.5 -45.5t46.5 -78.5t18.5 -117.5q0 -66 -26 -126.5t-94 -122t-173 -105.5l-109 -49q160 -284 402 -547q122 153 135 471h90q-10 -342 -160 -524 q114 -105 207 -105q44 0 104 29l31 -64q-47 -39 -133 -39q-78 0 -137 28.5t-129 88.5q-147 -115 -361 -115q-185 0 -310.5 109t-125.5 283zM225 383q0 -63 22.5 -120.5t65 -104t110 -74t150.5 -27.5q173 0 295 88q-216 216 -428 568q-103 -59 -159 -136t-56 -194zM412 1085 q0 -71 16.5 -128t52.5 -138l97 43q125 57 184 128t59 163t-46.5 141t-137.5 49q-101 0 -163 -70t-62 -188z" />
<glyph unicode="'" horiz-adv-x="407" d="M143 952v531h121v-531h-121z" />
<glyph unicode="(" horiz-adv-x="583" d="M129 573q0 131 26.5 264.5t72.5 250t96.5 212t109.5 183.5h103q-155 -255 -232.5 -477t-77.5 -433q0 -170 39 -329t96.5 -281t151.5 -276l-96 2q-62 98 -107.5 186.5t-90 201t-68 238.5t-23.5 258z" />
<glyph unicode=")" horiz-adv-x="583" d="M96 1483h103q59 -88 109.5 -183.5t96.5 -212t72.5 -250t26.5 -264.5q0 -132 -23.5 -258t-68 -238.5t-90 -201t-107.5 -186.5l-96 -2q94 154 151.5 276t96.5 281t39 329q0 211 -77.5 433t-232.5 477z" />
<glyph unicode="*" horiz-adv-x="956" d="M121 1270l18 39l283 -72l41 309h43l35 -309l280 74l15 -39l-261 -131l173 -269l-37 -24l-232 219l-227 -223l-35 26l170 269z" />
<glyph unicode="+" d="M205 612v97h330v323h98v-323h330v-97h-330v-338h-98v338h-330z" />
<glyph unicode="," horiz-adv-x="409" d="M57 -236l105 404h127l-154 -418z" />
<glyph unicode="-" horiz-adv-x="651" d="M41 555v104h555v-104h-555z" />
<glyph unicode="." horiz-adv-x="428" d="M111 76q0 49 27 73.5t75 24.5q104 0 104 -98q0 -101 -104 -101q-48 0 -75 25.5t-27 75.5z" />
<glyph unicode="/" horiz-adv-x="684" d="M10 -188l576 1734h90l-574 -1734h-92z" />
<glyph unicode="0" horiz-adv-x="1118" d="M98 733q0 90 5 167.5t19.5 158.5t37 145.5t59.5 123t86 97.5t117.5 61.5t152.5 22.5q83 0 149.5 -23t112.5 -60.5t80 -95.5t53.5 -119t31 -140.5t15 -149.5t3.5 -157q0 -96 -5 -176t-18 -163t-35 -147.5t-57.5 -123t-83.5 -96.5t-115.5 -60.5t-150.5 -22.5 q-84 0 -151.5 22t-114.5 59t-82 94.5t-55.5 119t-33 142t-16.5 155t-4 166.5zM199 725q0 -93 5 -167t18.5 -153t39.5 -137t65 -105.5t98 -72t136 -24.5q65 0 117.5 19t89.5 51.5t64.5 83t44 106t26.5 128t13.5 142t3.5 154.5t-3 151t-12 138.5t-24.5 125.5t-42 103.5 t-62.5 81.5t-88 50t-117 19q-77 0 -137 -24t-100 -71.5t-67 -107t-41.5 -142t-20.5 -164.5t-6 -185z" />
<glyph unicode="1" horiz-adv-x="802" d="M94 1311q148 12 239.5 51.5t158.5 120.5h32v-1483h-96v1309q-49 -31 -154 -53.5t-165 -22.5z" />
<glyph unicode="2" horiz-adv-x="1042" d="M115 1157q58 352 417 352q82 0 149 -20t119.5 -61t81.5 -111t29 -164q0 -87 -21 -165.5t-68.5 -161.5t-97 -151t-134.5 -171l-344 -422v2h684v-84h-801v72l369 458q65 82 100.5 128.5t76.5 105t60.5 97.5t38 88t25 95t6.5 101q0 276 -283 276q-68 0 -120.5 -16.5t-84 -41 t-54.5 -64t-34 -75.5t-20 -85z" />
<glyph unicode="3" horiz-adv-x="1087" d="M100 299l99 20q8 -41 18.5 -73t33.5 -67t54 -58t82 -38t117 -15q65 0 122.5 19t105.5 58t76 107t28 158q0 94 -26.5 161t-77 105t-114 55t-145.5 17h-123v86h94q169 0 270 89.5t101 231.5q0 120 -65 193t-213 73q-75 0 -130 -18t-89.5 -53.5t-55 -76.5t-35.5 -99l-90 22 q33 160 141.5 236.5t272.5 76.5q177 0 272 -94.5t95 -247.5q0 -71 -19 -130.5t-48 -98t-69.5 -67.5t-79 -44.5t-79.5 -23.5v-4q150 -21 234.5 -116t84.5 -269q0 -197 -116.5 -318t-325.5 -121q-173 0 -276.5 83.5t-123.5 240.5z" />
<glyph unicode="4" horiz-adv-x="1069" d="M39 387v76l663 1020h134v-1008h180v-88h-182v-387h-97v387h-698zM158 475h581v911z" />
<glyph unicode="5" horiz-adv-x="1081" d="M76 301l98 25q12 -53 31.5 -93.5t54.5 -80.5t95 -62t141 -22q53 0 102 13t96.5 44.5t82 78.5t56 119.5t21.5 163.5q0 185 -83 274t-220 89q-183 0 -322 -133l-73 35l57 731h659v-88h-571l-51 -572q134 117 311 117q58 0 111 -11.5t107.5 -43.5t94 -81t64.5 -131t25 -188 q0 -109 -30.5 -201t-88 -161.5t-147.5 -108.5t-203 -39q-171 0 -281 83t-137 243z" />
<glyph unicode="6" horiz-adv-x="1138" d="M145 684q0 74 6 146.5t22 156t41 156.5t66 141.5t93.5 117t127.5 78t165 29.5q132 0 221 -71t117 -221l-91 -23q-33 132 -97 180.5t-165 48.5q-70 0 -128 -27t-99 -71.5t-73 -107t-51 -128t-32 -140t-18 -136.5t-6 -125q61 80 171 145.5t226 65.5q81 0 146 -22.5 t109.5 -62t74.5 -94t43.5 -116t13.5 -131.5q0 -228 -116 -363t-318 -135q-108 0 -189 39.5t-129.5 103.5t-79 159t-41 191.5t-10.5 215.5zM250 586q3 -57 8.5 -104t17 -103t27.5 -99.5t43 -86t61 -70.5t83 -45t108 -17q68 0 126 23t104.5 69.5t73 125.5t26.5 184 q0 344 -289 344q-112 0 -211.5 -60t-177.5 -161z" />
<glyph unicode="7" horiz-adv-x="1021" d="M78 1395v88h907v-76l-631 -1407h-108l628 1395h-796z" />
<glyph unicode="8" horiz-adv-x="1062" d="M90 350q0 66 19.5 123t51 98.5t77.5 77.5t91.5 59.5t100.5 45.5q-126 49 -208.5 146.5t-82.5 234.5q0 122 58 208t152 126t214 40q183 0 290.5 -88t107.5 -247q0 -133 -89 -238t-237 -174q44 -19 70.5 -31t67.5 -34.5t66.5 -43t55 -52t46.5 -66t28.5 -80.5t11.5 -99 q0 -171 -124 -276t-327 -105q-221 0 -330.5 102.5t-109.5 272.5zM197 350q0 -130 84.5 -209.5t255.5 -79.5q90 0 159 26.5t108 71.5t58 96t19 107q0 63 -24.5 116t-53 85t-87 65t-87.5 44.5t-94 35.5q-9 3 -13 5q-78 -31 -130.5 -60t-100.5 -71.5t-71 -100t-23 -131.5z M240 1147q0 -60 16.5 -109t41.5 -83t68 -65t80.5 -51t94.5 -44q319 149 319 381q0 120 -79 184.5t-230 64.5q-146 0 -228.5 -73.5t-82.5 -204.5z" />
<glyph unicode="9" horiz-adv-x="1138" d="M117 1010q0 229 116.5 364t319.5 135q78 0 142 -20.5t110 -55.5t81 -87.5t56.5 -111.5t35 -132.5t18.5 -145t5 -155.5q0 -96 -5.5 -178.5t-20.5 -168.5t-38.5 -155t-62.5 -131t-90 -103.5t-123 -65.5t-159 -24q-150 0 -251.5 75.5t-131.5 225.5l94 23q27 -121 105 -178.5 t190 -57.5q91 0 160 37t112 99.5t70.5 155.5t39 192t13.5 223q-61 -80 -170 -143.5t-225 -63.5q-101 0 -178 36t-122.5 99t-68 141.5t-22.5 170.5zM219 1018q0 -178 75.5 -270.5t217.5 -92.5q110 0 211.5 63.5t173.5 160.5q-3 58 -7.5 104.5t-15 105t-26.5 103.5t-42.5 90.5 t-60.5 75.5t-84.5 48.5t-111.5 18.5q-69 0 -127 -23t-104.5 -70.5t-72.5 -127.5t-26 -186z" />
<glyph unicode=":" horiz-adv-x="428" d="M111 76q0 49 27 73.5t75 24.5q104 0 104 -98q0 -101 -104 -101q-48 0 -75 25.5t-27 75.5zM111 905q0 49 27 74t75 25q104 0 104 -99q0 -100 -104 -100q-48 0 -75 25t-27 75z" />
<glyph unicode=";" horiz-adv-x="409" d="M31 -236l104 404h127l-153 -418zM129 905q0 49 27 74t75 25q50 0 77.5 -25t27.5 -74q0 -100 -105 -100q-48 0 -75 25t-27 75z" />
<glyph unicode="&#x3c;" d="M182 522v117l760 336v-103l-655 -288l655 -271v-100z" />
<glyph unicode="=" d="M211 395v92h747v-92h-747zM211 686v92h747v-92h-747z" />
<glyph unicode="&#x3e;" d="M182 213v100l656 271l-656 288v103l760 -336v-117z" />
<glyph unicode="?" horiz-adv-x="985" d="M27 1159q11 45 27 84.5t48.5 84t76 76t112 52.5t153.5 21t153.5 -19t124.5 -60t87 -115t31 -177q0 -89 -25 -160.5t-66 -120t-101 -84t-124 -56t-141 -32.5v-288h-90v358q78 7 139 20.5t121 40.5t99.5 66t64 100t24.5 140q0 90 -23 152.5t-67 94.5t-94 45t-117 13 q-61 0 -107.5 -10.5t-90.5 -37.5t-76 -78.5t-51 -127.5zM229 80q0 102 107 102q104 0 104 -102q0 -105 -104 -105q-50 0 -78.5 26.5t-28.5 78.5z" />
<glyph unicode="@" horiz-adv-x="1705" d="M106 395q0 228 98 401t275 266t408 93q152 0 279 -39t225 -117t153 -205t55 -292q0 -252 -88.5 -377t-244.5 -125q-141 0 -197 115q-39 -54 -116 -92.5t-162 -38.5q-86 0 -148 32t-94.5 88.5t-47 120t-14.5 140.5q0 196 98 322t259 126q59 0 117.5 -19.5t99.5 -54.5l6 62 h80v-527q0 -39 0.5 -58t4 -49t11 -44.5t21 -30.5t35 -22.5t51.5 -6.5q34 0 66 11t65 40t57 74t39.5 119.5t15.5 169.5q0 604 -639 604q-315 0 -497 -187.5t-182 -496.5q0 -169 55 -297.5t151.5 -204t217.5 -112.5t264 -37q141 0 257.5 43t184.5 117l57 -56 q-85 -90 -220 -135t-294 -45q-163 0 -301 46.5t-241 135t-161.5 228t-58.5 315.5zM588 362q0 -303 209 -303q80 0 154 47.5t106 120.5v432q-89 78 -209 78q-118 0 -189 -96.5t-71 -278.5z" />
<glyph unicode="A" horiz-adv-x="1304" d="M72 0l508 1483h143l510 -1483h-111l-172 508h-604l-172 -508h-102zM375 594h547l-275 825z" />
<glyph unicode="B" horiz-adv-x="1306" d="M229 0v1483h465q102 0 180.5 -18.5t128 -50.5t80.5 -79t43.5 -99t12.5 -116q0 -79 -24.5 -141t-69.5 -103t-100 -66.5t-122 -37.5v-4q361 -51 361 -371q0 -111 -38.5 -189.5t-112.5 -123t-169 -64.5t-221 -20h-414zM326 90h317q82 0 141 6t118.5 24.5t96 51t59.5 89 t23 134.5q0 160 -107 240t-282 80h-366v-625zM326 805h282q57 0 110.5 7.5t112 29.5t101 56t70.5 92.5t28 133.5q0 148 -82 209.5t-270 61.5h-352v-590z" />
<glyph unicode="C" horiz-adv-x="1466" d="M143 713q0 193 49.5 345t139 250t212.5 149.5t271 51.5q229 0 368 -118.5t160 -352.5l-94 -8q-29 197 -131 296t-305 99q-262 0 -414.5 -180.5t-152.5 -515.5q0 -670 536 -670q195 0 305.5 81.5t155.5 267.5l86 -21q-22 -111 -73 -192.5t-126 -128.5t-162.5 -69 t-191.5 -22q-133 0 -239.5 35.5t-179.5 100t-121.5 157t-70.5 203t-22 242.5z" />
<glyph unicode="D" horiz-adv-x="1517" d="M229 0v1483h410q374 0 554.5 -188t180.5 -531q0 -173 -46.5 -311.5t-139 -240.5t-241 -157t-343.5 -55h-375zM328 84h293q313 0 481 172t168 498q0 183 -44 310.5t-130 199.5t-199 103.5t-266 31.5h-303v-1315z" />
<glyph unicode="E" d="M229 0v1483h815v-86h-716v-598h669v-88h-669v-625h733v-86h-832z" />
<glyph unicode="F" horiz-adv-x="1112" d="M229 0v1483h818v-86h-719v-625h665v-90h-665v-682h-99z" />
<glyph unicode="G" horiz-adv-x="1548" d="M143 727q0 193 48.5 342.5t138.5 245.5t213.5 145t275.5 49q483 0 524 -475l-94 -10q-12 113 -46.5 191.5t-91.5 124t-129.5 65.5t-168.5 20q-265 0 -417 -181t-152 -509q0 -160 31 -282t81.5 -195.5t123.5 -119.5t147.5 -62.5t163.5 -16.5q109 0 198.5 39.5t145 104 t85 140.5t29.5 153v178h-481v92h567v-766h-75l-17 236q-44 -111 -167 -186t-298 -75q-164 0 -287 54.5t-198.5 155.5t-112.5 236.5t-37 305.5z" />
<glyph unicode="H" horiz-adv-x="1484" d="M229 0v1483h99v-676h829v676h98v-1483h-98v717h-829v-717h-99z" />
<glyph unicode="I" horiz-adv-x="557" d="M229 0v1483h99v-1483h-99z" />
<glyph unicode="J" horiz-adv-x="997" d="M82 295l96 16q8 -58 21 -97.5t40.5 -76.5t77 -55.5t121.5 -18.5q43 0 77.5 6.5t69 26t57 51.5t36.5 86t14 127v1123h99v-1129q0 -108 -26 -183.5t-76.5 -117.5t-113.5 -60t-147 -18q-172 0 -255 87.5t-91 232.5z" />
<glyph unicode="K" horiz-adv-x="1275" d="M229 0v1483h99v-783l731 783h123l-613 -654l668 -829h-119l-616 764l-174 -184v-580h-99z" />
<glyph unicode="L" horiz-adv-x="1130" d="M229 0v1483h99v-1399h690v-84h-789z" />
<glyph unicode="M" horiz-adv-x="1812" d="M229 0v1483h166l510 -1407h2l516 1407h160v-1483h-96v1382h-4l-512 -1382h-135l-508 1384h-4v-1384h-95z" />
<glyph unicode="N" horiz-adv-x="1525" d="M229 0v1483h158l815 -1374v1374h94v-1483h-133l-837 1399v-1399h-97z" />
<glyph unicode="O" horiz-adv-x="1599" d="M143 745q0 222 78 393.5t232.5 271t365.5 99.5q156 0 278.5 -56.5t200 -156t118 -232t40.5 -288.5q0 -369 -173.5 -585t-491.5 -216q-160 0 -284.5 57.5t-203.5 161.5t-119.5 243.5t-40.5 307.5zM248 743q0 -320 151.5 -502t399.5 -182q122 0 223 45t175 131t115.5 219 t41.5 302q0 314 -147.5 491.5t-391.5 177.5q-121 0 -224.5 -46t-179.5 -131t-119.5 -215t-43.5 -290z" />
<glyph unicode="P" horiz-adv-x="1253" d="M229 0v1483h428q111 0 197 -22.5t141 -60.5t91 -94t50.5 -117.5t14.5 -135.5q0 -128 -39 -219.5t-113.5 -145t-174 -78t-230.5 -24.5h-268v-586h-97zM326 674h270q69 0 121.5 5.5t106.5 20t92.5 41.5t69 68t46 103t15.5 143q0 176 -98.5 260t-319.5 84h-303v-725z" />
<glyph unicode="Q" horiz-adv-x="1599" d="M143 745q0 222 78 393.5t232.5 271t365.5 99.5q156 0 278.5 -56.5t200 -156t118 -232t40.5 -288.5q0 -204 -54.5 -366.5t-158.5 -266.5l193 -211l-66 -55l-194 207q-165 -109 -385 -109q-161 0 -286 57.5t-203.5 161.5t-118.5 243t-40 308zM248 743q0 -320 151 -500 t400 -180q174 0 305 93l-287 321l72 60l293 -324q170 181 170 543q0 314 -147 491.5t-390 177.5q-121 0 -224.5 -46t-179.5 -131t-119.5 -215t-43.5 -290z" />
<glyph unicode="R" horiz-adv-x="1304" d="M229 0v1483h457q473 0 473 -389q0 -164 -82.5 -269t-226.5 -145l383 -680h-109l-368 657h-430v-657h-97zM326 743h348q90 0 157 17.5t119 57.5t78.5 109.5t26.5 168.5q0 75 -20 129t-54 87.5t-88.5 53t-113.5 26.5t-138 7h-315v-656z" />
<glyph unicode="S" horiz-adv-x="1183" d="M66 377l100 20q11 -54 27.5 -98t48.5 -88.5t75.5 -74.5t110 -49t150.5 -19q58 0 109 7.5t102.5 28.5t88.5 54t60 87.5t23 125.5q0 85 -29.5 144.5t-100 99t-118 56.5t-152.5 45q-7 2 -10 3q-53 14 -91 26t-84 31t-78.5 40t-65.5 51.5t-52.5 66.5t-32 84.5t-12.5 105.5 q0 175 128.5 280t340.5 105q409 0 461 -407l-94 -10q-8 38 -15.5 65t-21.5 64t-31 63t-44.5 53.5t-61.5 44.5t-82 28t-105 11q-101 0 -174.5 -23t-114.5 -64t-60 -92t-19 -114q0 -59 17.5 -105.5t44 -77t73.5 -57t91 -42t112 -35.5q174 -51 227 -72q175 -71 232 -195 q32 -70 32 -163q0 -85 -26.5 -154t-71.5 -115.5t-108 -77.5t-134 -45t-151 -14q-124 0 -218 30t-153 86t-93 126t-50 160z" />
<glyph unicode="T" horiz-adv-x="1089" d="M41 1397v86h1008v-86h-455v-1397h-98v1397h-455z" />
<glyph unicode="U" horiz-adv-x="1470" d="M221 467v1016h98v-1008q0 -220 108.5 -314.5t309.5 -94.5q101 0 174.5 20t128.5 66t83 125.5t28 193.5v1012h98v-1016q0 -244 -133.5 -368t-390.5 -124q-262 0 -383 125.5t-121 366.5z" />
<glyph unicode="V" horiz-adv-x="1257" d="M61 1483h109l471 -1399h2l451 1399h102l-483 -1483h-142z" />
<glyph unicode="W" horiz-adv-x="1781" d="M82 1483h104l281 -1354h4l365 1354h129l358 -1379h4l277 1379h96l-307 -1483h-133l-357 1378h-6l-377 -1378h-117z" />
<glyph unicode="X" horiz-adv-x="1243" d="M51 0l494 756l-469 727h110l420 -658l424 658h109l-467 -719l520 -764h-109l-473 692l-448 -692h-111z" />
<glyph unicode="Y" horiz-adv-x="1101" d="M8 1483h111l442 -787h2l430 787h101l-486 -887v-596h-98v588z" />
<glyph unicode="Z" horiz-adv-x="1198" d="M80 0v70l854 1327h-828v86h957v-72l-858 -1325h893v-86h-1018z" />
<glyph unicode="[" horiz-adv-x="489" d="M145 -293v1776h261v-78h-170v-1620h170v-78h-261z" />
<glyph unicode="\" horiz-adv-x="681" d="M6 1546h90l576 -1734h-92z" />
<glyph unicode="]" horiz-adv-x="489" d="M84 -215h170v1620h-170v78h260v-1776h-260v78z" />
<glyph unicode="^" horiz-adv-x="1007" d="M45 612l404 748h104l410 -748h-107l-358 658l-355 -658h-98z" />
<glyph unicode="_" horiz-adv-x="1024" d="M0 -297h1024v-74h-1024v74z" />
<glyph unicode="`" horiz-adv-x="1024" d="M295 1538h147l232 -338l-84 -29z" />
<glyph unicode="a" horiz-adv-x="1097" d="M147 258q0 86 30.5 150t78.5 101t118 59.5t136.5 30t146.5 7.5q52 0 142 -4v92q0 158 -52 220.5t-196 62.5q-126 0 -186 -47t-78 -148l-97 17q24 140 115 201t254 61q185 0 263.5 -78t78.5 -270v-566q0 -46 13 -66t51 -20q19 0 63 13l8 -66q-49 -24 -110 -24 q-62 0 -92 39q-27 35 -27 82v10q-63 -63 -154.5 -101.5t-197.5 -38.5q-76 0 -134 20.5t-90 50.5t-52 70.5t-26 74t-6 67.5zM254 268q0 -45 10 -80.5t33 -65t66.5 -45.5t105.5 -16q96 0 186.5 41t145.5 107v307q-71 6 -160 6q-86 0 -150 -10.5t-120.5 -37t-86.5 -78.5 t-30 -128z" />
<glyph unicode="b" horiz-adv-x="1187" d="M195 0v1546h98v-637q85 71 175.5 111.5t205.5 40.5q89 0 157 -27t119 -86.5t78 -160t27 -240.5q0 -148 -34.5 -260t-96.5 -179t-141 -100t-175 -33q-85 0 -169 32.5t-146 80.5l-8 -88h-90zM295 190q158 -122 321 -122q173 0 253.5 130.5t80.5 358.5t-73.5 322t-219.5 94 q-100 0 -201.5 -51.5t-160.5 -112.5v-619z" />
<glyph unicode="c" horiz-adv-x="1085" d="M123 516q0 271 126 408t357 137q155 0 258.5 -88t110.5 -250l-109 -12q-14 134 -80 198t-192 64q-55 0 -105 -12.5t-99 -44.5t-84.5 -81t-57 -127t-21.5 -178q0 -107 20.5 -189.5t54 -133t81 -82t95.5 -43.5t104 -12q257 0 299 237l102 -20q-28 -157 -139 -234.5 t-260 -77.5q-461 0 -461 541z" />
<glyph unicode="d" horiz-adv-x="1189" d="M133 510q0 146 35 254.5t98 172t141.5 94t172.5 30.5q163 0 313 -103v588h102v-1546h-86l-10 119q-86 -69 -173 -106.5t-198 -37.5q-183 0 -289 130t-106 405zM240 508q0 -224 76 -334.5t233 -110.5q100 0 191.5 45t154.5 113v637q-54 41 -139.5 77t-177.5 36 q-180 0 -259 -120.5t-79 -342.5z" />
<glyph unicode="e" horiz-adv-x="1112" d="M123 520q0 139 39 245.5t106.5 169.5t151 94.5t180.5 31.5q101 0 177 -32.5t121.5 -91.5t68 -134.5t22.5 -167.5q0 -76 -10 -135h-750q3 -125 31 -211.5t79 -132.5t111 -65t140 -19q121 0 190 53.5t97 161.5l96 -19q-36 -150 -141 -221.5t-250 -71.5q-129 0 -221.5 43.5 t-143 122t-72.5 171.5t-22 208zM229 588h656v24q0 172 -67 262q-72 96 -230 95q-68 0 -127.5 -21.5t-110 -65t-82.5 -119t-39 -175.5z" />
<glyph unicode="f" horiz-adv-x="612" d="M47 952v88h164v209q0 314 258 314q94 0 162 -31l-6 -82q-79 27 -150 27q-164 0 -164 -195v-242h299v-88h-299v-952h-100v952h-164z" />
<glyph unicode="g" horiz-adv-x="1120" d="M84 -195q0 49 13.5 89.5t42 73.5t53 53.5t65.5 50.5q-43 11 -72.5 46t-29.5 81q0 96 118 188q-72 35 -113.5 113t-41.5 174q0 179 117 283t309 104q224 0 325 -123q50 115 136 115q29 0 73 -13v-102h-16q-85 0 -174 -29q65 -74 65 -219q0 -173 -114 -273t-285 -100 q-128 0 -209 31q-42 -31 -64 -59t-22 -66q0 -41 40 -63.5t138 -28.5l287 -16q167 -10 247.5 -65t80.5 -187q0 -56 -17 -103t-46 -80t-70 -58.5t-85.5 -41t-97 -25.5t-100 -14t-98.5 -4q-455 0 -455 268zM193 -182q0 -30 7.5 -54.5t31 -49.5t61.5 -41.5t104 -27t154 -10.5 q395 0 395 232q0 146 -211 156l-391 20q-72 -51 -111.5 -104.5t-39.5 -120.5zM229 692q0 -129 77 -205.5t237 -76.5q139 0 222 75t83 203q0 144 -77.5 215.5t-221.5 71.5q-142 0 -231 -70t-89 -213z" />
<glyph unicode="h" horiz-adv-x="1183" d="M190 0v1546h101v-639q212 154 397 154q163 0 239.5 -91.5t76.5 -269.5v-700h-101v696q0 136 -53 203.5t-180 67.5q-102 0 -209.5 -51t-169.5 -109v-807h-101z" />
<glyph unicode="i" horiz-adv-x="483" d="M158 1386q0 43 25 66t69 23t69 -23t25 -66q0 -41 -25 -63.5t-69 -22.5t-69 22.5t-25 63.5zM197 0v1040h100v-1040h-100z" />
<glyph unicode="j" horiz-adv-x="477" d="M-106 -426l18 88q70 -24 145 -24q69 0 104.5 41t35.5 131v1230h100v-1222q0 -140 -59.5 -207.5t-184.5 -67.5q-30 0 -82.5 9.5t-76.5 21.5zM160 1411q0 42 24.5 65t69.5 23t69.5 -23t24.5 -65q0 -41 -25 -63.5t-69 -22.5t-69 22.5t-25 63.5z" />
<glyph unicode="k" horiz-adv-x="1032" d="M190 0v1546h101v-1044l520 538h121l-369 -383l395 -657h-108l-358 586l-201 -203v-383h-101z" />
<glyph unicode="l" horiz-adv-x="483" d="M197 0v1546h100v-1546h-100z" />
<glyph unicode="m" horiz-adv-x="1781" d="M190 0v1040h91l8 -137q104 77 193 117.5t190 40.5q203 0 258 -158q104 75 195.5 116.5t191.5 41.5q163 0 224 -87.5t61 -275.5v-698h-101v694q0 72 -7 118.5t-27 85t-59 56t-101 17.5q-88 0 -187 -47.5t-172 -106.5q8 -49 8 -119v-698h-100v694q0 72 -7.5 118.5t-28 85 t-60 56t-101.5 17.5q-93 0 -199 -53.5t-169 -112.5v-805h-101z" />
<glyph unicode="n" horiz-adv-x="1183" d="M190 0v1040h89l6 -135q219 156 405 156q314 0 314 -361v-700h-101v696q0 136 -52.5 204.5t-178.5 68.5q-102 0 -210 -52t-171 -110v-807h-101z" />
<glyph unicode="o" horiz-adv-x="1171" d="M123 516q0 256 127 400.5t358 144.5q224 0 332.5 -137.5t108.5 -380.5q0 -131 -26.5 -233.5t-81.5 -178.5t-145.5 -116t-213.5 -40q-126 0 -217 41t-143 116t-75.5 170t-23.5 214zM223 524q0 -456 367 -456q352 0 352 462q0 237 -86.5 338t-255.5 101q-173 0 -275 -111.5 t-102 -333.5z" />
<glyph unicode="p" horiz-adv-x="1187" d="M195 -434v1474h88l8 -133q180 154 385 154q84 0 151 -27.5t119.5 -86t80.5 -160t28 -240.5q0 -146 -34.5 -258.5t-96 -179.5t-139 -100.5t-169.5 -33.5q-158 0 -325 115v-524h-96zM295 190q159 -124 321 -124q117 0 193 63.5t108.5 170t32.5 257.5q0 226 -70 323t-223 97 q-101 0 -201 -51t-161 -117v-619z" />
<glyph unicode="q" horiz-adv-x="1187" d="M133 508q0 146 35 255.5t97.5 173t140.5 94t172 30.5q141 0 309 -107l6 86h100v-1474h-96v555q-167 -146 -369 -146q-184 0 -289.5 129.5t-105.5 403.5zM238 498q0 -225 77.5 -331t237.5 -106q98 0 186 45.5t154 114.5v621q-33 25 -54 39.5t-66.5 40.5t-97 39.5 t-106.5 13.5q-331 0 -331 -477z" />
<glyph unicode="r" horiz-adv-x="694" d="M190 0v1040h80l11 -139q149 161 357 161q16 0 32 -1v-100q-24 3 -48 3q-74 0 -157 -28q-110 -36 -174 -102v-834h-101z" />
<glyph unicode="s" horiz-adv-x="976" d="M106 295l97 18q9 -44 20 -76t33 -66t53 -55.5t80 -35.5t113 -14q118 0 189 49t71 157q0 42 -13.5 74t-34 52.5t-56.5 36.5t-69.5 25t-84.5 19q-50 10 -75.5 15.5t-71 18t-70.5 25.5t-57.5 36t-49.5 50t-29 66t-12 86q0 69 29 124.5t79 90t113 52.5t134 18q92 0 157.5 -22 t103.5 -64.5t57.5 -96.5t25.5 -128l-97 -13q-13 120 -68 179t-186 59q-69 0 -119 -16t-76.5 -44.5t-38 -60.5t-11.5 -70q0 -37 9 -65.5t29.5 -49.5t41 -35t58 -26.5t65 -19.5t75.5 -17q47 -10 72.5 -16t68 -19t66.5 -26t54.5 -36t46 -49.5t27 -64.5t11.5 -84 q0 -136 -93.5 -218.5t-274.5 -82.5q-172 0 -270 74.5t-122 245.5z" />
<glyph unicode="t" horiz-adv-x="745" d="M51 952v88h166v297l100 17v-314h295v-88h-295v-694q0 -102 35 -150.5t135 -48.5q45 0 98.5 16.5t90.5 39.5l29 -78q-36 -26 -102 -44t-122 -18q-143 0 -203.5 62t-60.5 201v714h-166z" />
<glyph unicode="u" horiz-adv-x="1189" d="M184 342v698h101v-696q0 -136 51 -204t176 -68q102 0 209 51.5t170 109.5v807h100v-1040h-88l-6 133q-103 -75 -196.5 -114t-206.5 -39q-165 0 -237.5 90t-72.5 272z" />
<glyph unicode="v" horiz-adv-x="989" d="M27 1040h110l363 -925h4l358 925h101l-406 -1040h-117z" />
<glyph unicode="w" horiz-adv-x="1476" d="M27 1040h104l295 -940h4l252 940h127l250 -936h4l293 936h94l-334 -1040h-125l-243 938h-5l-256 -938h-120z" />
<glyph unicode="x" horiz-adv-x="950" d="M45 0l356 543l-350 497h113l297 -424l301 424h108l-348 -489l381 -551h-112l-324 469l-309 -469h-113z" />
<glyph unicode="y" horiz-adv-x="935" d="M-53 -420l20 84q73 -33 164 -33q71 0 124 45.5t97 165.5l60 158l-377 1040h106l326 -903h2l334 903h106q-342 -893 -475 -1235q-58 -145 -131 -203.5t-178 -58.5q-80 0 -178 37z" />
<glyph unicode="z" horiz-adv-x="929" d="M68 0v68l661 886h-649v86h772v-69l-664 -889h684v-82h-804z" />
<glyph unicode="{" horiz-adv-x="581" d="M2 541v94h27q174 0 174 199q0 59 -13.5 233.5t-13.5 230.5q0 102 68.5 156.5t195.5 54.5h80v-88h-102q-74 -1 -105.5 -30.5t-31.5 -92.5q0 -58 11 -224t11 -240q0 -62 -11.5 -107t-34 -71.5t-43 -40.5t-48.5 -25q30 -13 49 -25.5t42 -38.5t34.5 -70t11.5 -106 q0 -76 -10 -218.5t-10 -192.5q0 -75 36.5 -114.5t129.5 -39.5h71v-82h-78q-266 0 -266 211q0 72 13.5 222t13.5 206q0 112 -44.5 155.5t-123.5 43.5h-33z" />
<glyph unicode="|" horiz-adv-x="573" d="M242 -293v1839h90v-1839h-90z" />
<glyph unicode="}" horiz-adv-x="581" d="M61 -209h103q74 1 105.5 30.5t31.5 92.5q0 58 -11 224.5t-11 240.5q0 62 11.5 107t34 71.5t43 40.5t48.5 25q-24 10 -39 18.5t-36 27t-32.5 42t-20.5 62.5t-9 89q0 76 10 219t10 193q0 75 -36.5 114t-129.5 39h-72v82h78q267 0 267 -211q0 -72 -13.5 -222t-13.5 -206 q0 -111 44.5 -154.5t123.5 -43.5h33v-94h-27q-174 0 -174 -199q0 -59 13.5 -234t13.5 -231q0 -102 -69 -156.5t-196 -54.5h-80v88z" />
<glyph unicode="~" horiz-adv-x="940" d="M74 594q-7 58 4.5 102t36 67t52.5 33.5t58 10.5q68 0 248.5 -49t222.5 -49q47 0 67.5 22t20.5 96l82 -2q7 -60 -4.5 -103.5t-37.5 -65.5t-55.5 -32t-63.5 -10q-62 0 -246 49.5t-230 49.5q-84 0 -79 -123z" />
<glyph unicode="&#xa1;" horiz-adv-x="509" d="M170 958q0 105 106 105q50 0 77.5 -26.5t27.5 -78.5q0 -102 -105 -102q-106 0 -106 102zM219 -444l25 1116h65l31 -1116h-121z" />
<glyph unicode="&#xa2;" horiz-adv-x="1026" d="M143 709q0 225 103.5 353.5t279.5 147.5v205h82v-203q139 -8 226.5 -88t93.5 -225l-94 -12q-13 117 -66.5 171t-157.5 60v-823q102 9 157.5 63.5t80.5 163.5l90 -20q-24 -138 -111 -211.5t-217 -87.5v-203h-80v203q-194 13 -290.5 148.5t-96.5 357.5zM248 721 q0 -83 14 -152t44.5 -129.5t87.5 -98.5t136 -46v821q-58 -6 -106 -29t-89 -67.5t-64 -120.5t-23 -178z" />
<glyph unicode="&#xa3;" horiz-adv-x="1101" d="M55 0v86h109q186 177 186 375q0 106 -57 217h-223v84h174q-22 43 -32.5 65t-29.5 70t-28 96.5t-9 98.5q0 183 124.5 300t310.5 117t284.5 -88t118.5 -280l-94 -11q-18 148 -86 218.5t-219 70.5q-150 0 -245 -79.5t-95 -231.5q0 -64 20.5 -139.5t34 -107t45.5 -99.5h506 v-84h-459q49 -116 49 -225q0 -206 -161 -367h440q109 0 160 56.5t73 189.5l101 -23q-24 -163 -108.5 -236t-233.5 -73h-656z" />
<glyph unicode="&#xa4;" d="M23 102l196 197q-72 115 -72 281q0 138 76 262l-194 192l88 80l186 -186q123 102 299 102q184 0 297 -96l178 178l80 -76l-184 -188q69 -109 69 -260q0 -165 -84 -289l197 -195l-88 -77l-193 188q-117 -90 -286 -90q-180 0 -295 94l-58 -57q-20 -20 -63 -64l-70 -71z M258 580q0 -162 87.5 -261.5t252.5 -99.5q155 0 243.5 101t88.5 260q0 168 -88 261t-250 93q-156 0 -245 -96.5t-89 -257.5z" />
<glyph unicode="&#xa5;" horiz-adv-x="1021" d="M61 1483h117l346 -613h2l332 613h107l-336 -600h223v-86h-279v-203h279v-86h-279v-508h-100v508h-280v86h280v203h-280v86h217z" />
<glyph unicode="&#xa6;" horiz-adv-x="573" d="M242 -293v795h90v-795h-90zM242 836v710h90v-710h-90z" />
<glyph unicode="&#xa7;" horiz-adv-x="1093" d="M106 530q0 82 51.5 155.5t157.5 148.5q-68 48 -102.5 111t-34.5 157q0 116 56 196.5t146 117t206 36.5q186 0 290.5 -98.5t110.5 -266.5l-102 -16q-16 140 -90 213.5t-220 73.5q-141 0 -214.5 -68.5t-73.5 -173.5q0 -65 24.5 -113.5t66.5 -78t96.5 -51t114.5 -38 t119.5 -33t114 -41.5t96.5 -59t66.5 -89.5t24.5 -129.5q0 -84 -56 -164t-149 -139q133 -89 133 -262q0 -172 -115 -264t-293 -92q-186 0 -290.5 98t-110.5 266l109 17q12 -141 83 -213t216 -72q143 0 217.5 71t74.5 189q0 79 -40 132t-103.5 80t-140.5 46.5t-154.5 42 t-141 55.5t-103.5 97.5t-40 158.5zM213 524q0 -53 23 -93.5t58.5 -64t89.5 -43.5t104.5 -32t115.5 -30.5t111 -37.5q188 123 188 264q0 64 -30 109t-86.5 72t-113.5 44t-138 38.5t-132 42.5q-190 -127 -190 -269z" />
<glyph unicode="&#xa8;" horiz-adv-x="1024" d="M223 1362q0 40 24.5 63t67.5 23q40 0 65.5 -23.5t25.5 -62.5q0 -40 -25 -63t-66 -23q-43 0 -67.5 22.5t-24.5 63.5zM614 1362q0 39 25.5 62.5t67.5 23.5q40 0 65 -23.5t25 -62.5q0 -40 -24.5 -63t-65.5 -23q-42 0 -67.5 22.5t-25.5 63.5z" />
<glyph unicode="&#xa9;" horiz-adv-x="1536" d="M100 612q0 153 52.5 280t143.5 210.5t213 129.5t261 46q309 0 487.5 -172.5t178.5 -464.5q0 -297 -186 -481.5t-484 -184.5q-162 0 -290 49t-209.5 135.5t-124 201.5t-42.5 251zM188 614q0 -265 156 -418t426 -153q268 0 424 158t156 428q0 277 -159.5 428t-420.5 151 q-167 0 -298 -69t-207.5 -205t-76.5 -320zM406 635q0 178 97.5 287.5t274.5 109.5q124 0 202 -62t85 -196l-92 -12q-8 96 -54.5 143t-142.5 47q-119 0 -194.5 -78.5t-75.5 -242.5q0 -140 66 -227t198 -87q105 0 151.5 44.5t69.5 146.5l84 -14q-10 -76 -41 -129.5t-75 -80 t-88 -37.5t-95 -11q-97 0 -169 30t-115.5 84t-64.5 125.5t-21 159.5z" />
<glyph unicode="&#xaa;" horiz-adv-x="745" d="M96 741q0 226 334 226q20 0 48 -1t40 -1v77q0 71 -32 106.5t-117 35.5q-76 0 -111.5 -28t-46.5 -89l-84 14q13 93 75 134.5t175 41.5q125 0 179 -51t54 -174v-344q0 -28 9.5 -39.5t33.5 -11.5q17 0 41 6l6 -57q-35 -21 -82 -21t-70.5 24t-23.5 62q-90 -90 -225 -90 q-49 0 -87 13t-59 32t-34.5 44.5t-18 47t-4.5 43.5zM195 758q0 -57 28 -89t101 -32q55 0 108 25.5t88 62.5v166q-46 4 -84 4q-29 0 -51 -1t-53 -5t-52.5 -13.5t-42.5 -23.5t-31.5 -38.5t-10.5 -55.5z" />
<glyph unicode="&#xab;" horiz-adv-x="849" d="M145 535l183 301h110l-172 -299l172 -326h-112zM436 535l182 301h111l-172 -299l172 -326h-113z" />
<glyph unicode="&#xac;" d="M207 616v105h758v-297h-123v192h-635z" />
<glyph unicode="&#xad;" horiz-adv-x="636" d="M41 555v104h555v-104h-555z" />
<glyph unicode="&#xae;" horiz-adv-x="907" d="M82 973q0 168 106.5 269t266.5 101q171 0 270.5 -97t99.5 -259q0 -166 -103 -268.5t-269 -102.5q-178 0 -274.5 99t-96.5 258zM160 975q0 -136 79 -213.5t216 -77.5q138 0 217.5 79.5t79.5 217.5q0 141 -82 218t-215 77q-128 0 -211.5 -81t-83.5 -220zM334 788v392h133 q127 0 127 -111q0 -70 -68 -102l105 -179h-72l-94 158h-62v-158h-69zM403 999h27q45 0 69.5 14.5t24.5 55.5q0 33 -19.5 45t-60.5 12h-41v-127z" />
<glyph unicode="&#xaf;" horiz-adv-x="1024" d="M227 1321v92h568v-92h-568z" />
<glyph unicode="&#xb0;" horiz-adv-x="612" d="M88 1307q0 108 62.5 166.5t160.5 58.5q100 0 159.5 -55.5t59.5 -161.5q0 -104 -58 -162.5t-161 -58.5t-163 57t-60 156zM188 1307q0 -127 123 -127q59 0 89 35.5t30 99.5q0 131 -119 131q-123 0 -123 -139z" />
<glyph unicode="&#xb1;" d="M205 0v88h758v-88h-758zM205 612v97h330v323h98v-323h330v-97h-330v-338h-98v338h-330z" />
<glyph unicode="&#xb2;" horiz-adv-x="761" d="M117 1407q36 225 274 225q113 0 178.5 -55t65.5 -168q0 -49 -11 -91.5t-42 -93.5t-54 -82t-79 -101q-10 -12 -15 -19l-198 -217h413v-90h-526v82l219 258q50 60 70 85t51 67.5t42 68t20.5 60.5t9.5 71q0 139 -158 139q-87 0 -122.5 -40t-47.5 -117z" />
<glyph unicode="&#xb3;" horiz-adv-x="798" d="M100 915l95 19q8 -36 17 -58t27 -45t49 -34t77 -11q82 0 134 44.5t52 138.5q0 96 -53.5 136t-151.5 40h-80v84h60q98 0 155.5 50t57.5 128q0 137 -154 137q-82 0 -117.5 -31.5t-54.5 -99.5l-90 19q21 104 92.5 152t179.5 48q117 0 179.5 -58t62.5 -155q0 -92 -54 -146.5 t-126 -72.5v-2q196 -33 196 -233q0 -119 -78.5 -192t-209.5 -73q-111 0 -182 55.5t-83 159.5z" />
<glyph unicode="&#xb4;" horiz-adv-x="1024" d="M360 1200l232 338h147l-293 -367z" />
<glyph unicode="&#xb5;" horiz-adv-x="1288" d="M233 -360v1400h101v-690q0 -156 45 -224.5t162 -68.5q206 0 403 217v766h100v-1040h-104v160q-195 -191 -393 -191q-161 0 -223 97l-7 -7l15 -419h-99z" />
<glyph unicode="&#xb6;" horiz-adv-x="1095" d="M33 983q0 132 45 231t124 156.5t177 85t215 27.5h291v-1755h-101v1661h-213v-1661h-100v790q-203 20 -320.5 143t-117.5 322z" />
<glyph unicode="&#xb7;" horiz-adv-x="333" d="M59 614q0 52 28.5 78.5t78.5 26.5q106 0 106 -105q0 -104 -106 -104q-51 0 -79 26.5t-28 77.5z" />
<glyph unicode="&#xb8;" horiz-adv-x="1024" d="M283 -395l30 69q18 -14 51 -26.5t66 -12.5q52 0 79.5 30t27.5 73q0 55 -38 83t-128 29l28 211l78 -14l-18 -135q75 -8 123.5 -49t48.5 -121q0 -81 -55.5 -133.5t-139.5 -52.5q-97 0 -153 49z" />
<glyph unicode="&#xb9;" horiz-adv-x="579" d="M90 1507q90 6 149.5 31t102.5 74h53v-901h-98v762q-29 -17 -95.5 -29t-105.5 -12z" />
<glyph unicode="&#xba;" horiz-adv-x="792" d="M84 909q0 163 85 255.5t243 92.5q151 0 224 -88t73 -243q0 -172 -77 -268.5t-239 -96.5q-309 0 -309 348zM180 911q0 -137 55 -202.5t166 -65.5q209 0 209 275q0 141 -51 200.5t-153 59.5q-105 0 -165.5 -65.5t-60.5 -201.5z" />
<glyph unicode="&#xbb;" horiz-adv-x="849" d="M121 211l180 303l-176 322h111l180 -320l-183 -305h-112zM412 211l180 303l-176 322h110l181 -320l-183 -305h-112z" />
<glyph unicode="&#xbc;" horiz-adv-x="1697" d="M127 1368q90 6 149.5 31t102.5 74h53v-902h-98v762q-29 -17 -95.5 -29t-105.5 -12zM379 -25l729 1508h96l-727 -1508h-98zM897 221v78l403 602h125v-592h109v-88h-109v-221h-98v221h-430zM1004 309h325v490z" />
<glyph unicode="&#xbd;" horiz-adv-x="1697" d="M131 1368q90 6 149.5 31t102.5 74h53v-902h-98v762q-29 -17 -95.5 -29t-105.5 -12zM319 -25l730 1508h96l-727 -1508h-99zM999 692q18 115 90 170.5t185 55.5q112 0 178 -55.5t66 -168.5q0 -49 -11 -91.5t-42 -93.5t-54 -82t-79 -101q-10 -12 -15 -19l-199 -217h414v-90 h-526v82l219 258q49 59 70 85t51 67.5t41.5 68t20.5 61t9 70.5q0 139 -157 139q-87 0 -122.5 -40t-47.5 -117z" />
<glyph unicode="&#xbe;" horiz-adv-x="1697" d="M90 776l94 19q8 -36 17 -58t27 -45t49 -34t77 -11q82 0 134.5 44t52.5 138q0 96 -53.5 136.5t-151.5 40.5h-80v84h59q98 0 155.5 50t57.5 128q0 137 -153 137q-82 0 -117.5 -31.5t-54.5 -99.5l-90 18q21 104 92.5 152.5t179.5 48.5q117 0 179.5 -58t62.5 -155 q0 -92 -54.5 -146.5t-126.5 -72.5v-2q197 -33 197 -234q0 -119 -79 -191.5t-210 -72.5q-111 0 -181.5 55.5t-82.5 159.5zM444 -25l730 1508h96l-727 -1508h-99zM942 221v78l404 602h124v-592h109v-88h-109v-221h-98v221h-430zM1049 309h325v490z" />
<glyph unicode="&#xbf;" horiz-adv-x="901" d="M92 -68q0 89 25 160.5t66 120t101 84t124 56t141 32.5v289h90v-359q-78 -8 -139 -21t-121 -39.5t-100 -65.5t-64.5 -100t-24.5 -140q0 -90 23.5 -152.5t67 -94.5t94 -45t117.5 -13q61 0 107.5 10.5t90.5 37.5t76 78.5t51 127.5l88 -19q-10 -45 -26.5 -84.5t-49.5 -84 t-76.5 -76t-112 -52t-153.5 -20.5t-153 18.5t-124 59.5t-87 115t-31 177zM492 958q0 105 104 105q50 0 78 -26.5t28 -78.5q0 -102 -106 -102q-104 0 -104 102z" />
<glyph unicode="&#xc0;" horiz-adv-x="1304" d="M72 0l508 1483h143l510 -1483h-111l-172 508h-604l-172 -508h-102zM375 594h547l-275 825zM438 1866h150l215 -267l-88 -28z" />
<glyph unicode="&#xc1;" horiz-adv-x="1304" d="M72 0l508 1483h143l510 -1483h-111l-172 508h-604l-172 -508h-102zM375 594h547l-275 825zM510 1599l213 267h149l-276 -295z" />
<glyph unicode="&#xc2;" horiz-adv-x="1304" d="M72 0l508 1483h143l510 -1483h-111l-172 508h-604l-172 -508h-102zM367 1593l251 238h74l252 -238l-102 -18l-193 170l-184 -174zM375 594h547l-275 825z" />
<glyph unicode="&#xc3;" horiz-adv-x="1304" d="M72 0l508 1483h143l510 -1483h-111l-172 508h-604l-172 -508h-102zM340 1585q-7 59 4 102t35 65.5t52 33t61 10.5q53 0 112 -23t111.5 -46t89.5 -23q45 0 66.5 23t21.5 96l78 -4q7 -60 -4 -103t-36 -65t-54 -31.5t-64 -9.5q-50 0 -109.5 23.5t-114.5 47t-95 23.5 q-82 0 -80 -123zM375 594h547l-275 825z" />
<glyph unicode="&#xc4;" horiz-adv-x="1304" d="M72 0l508 1483h143l510 -1483h-111l-172 508h-604l-172 -508h-102zM365 1692q0 40 24.5 63t67.5 23q40 0 65 -23.5t25 -62.5q0 -40 -24.5 -63t-65.5 -23q-43 0 -67.5 22.5t-24.5 63.5zM375 594h547l-275 825zM756 1692q0 39 25 62.5t67 23.5q40 0 65 -23.5t25 -62.5 q0 -40 -24.5 -63t-65.5 -23q-42 0 -67 22.5t-25 63.5z" />
<glyph unicode="&#xc5;" horiz-adv-x="1304" d="M72 0l501 1468q-61 17 -95 64t-34 115q0 98 59 150t148 52q93 0 151 -47t58 -143q0 -73 -35 -122.5t-98 -68.5l506 -1468h-111l-172 508h-604l-172 -508h-102zM375 594h547l-275 825zM535 1651q0 -54 29.5 -84.5t86.5 -30.5q56 0 84.5 33.5t28.5 89.5q0 113 -113 113 q-53 0 -84.5 -31.5t-31.5 -89.5z" />
<glyph unicode="&#xc6;" horiz-adv-x="2043" d="M86 0l864 1483h948v-86h-716v-615h669v-88h-669v-608h733v-86h-834v694h-483l-403 -694h-109zM651 780h430v617h-82z" />
<glyph unicode="&#xc7;" horiz-adv-x="1466" d="M143 713q0 193 49.5 345t139 250t212.5 149.5t271 51.5q229 0 368 -118.5t160 -352.5l-94 -8q-29 197 -131 296t-305 99q-262 0 -414.5 -180.5t-152.5 -515.5q0 -670 536 -670q195 0 305.5 81.5t155.5 267.5l86 -21q-22 -109 -71.5 -189.5t-121.5 -127.5t-157 -70 t-186 -25l-11 -75q75 -8 123.5 -49t48.5 -121q0 -81 -55 -134t-139 -53q-98 0 -154 49l31 70q18 -14 51 -26.5t66 -12.5q52 0 79 30t27 73q0 55 -38 83t-128 29l19 139q-120 8 -215 48t-161 104.5t-110 155t-64 197t-20 231.5z" />
<glyph unicode="&#xc8;" d="M229 0v1483h815v-86h-716v-598h669v-88h-669v-625h733v-86h-832zM428 1866h150l215 -267l-88 -28z" />
<glyph unicode="&#xc9;" d="M229 0v1483h815v-86h-716v-598h669v-88h-669v-625h733v-86h-832zM500 1599l213 267h149l-276 -295z" />
<glyph unicode="&#xca;" d="M229 0v1483h815v-86h-716v-598h669v-88h-669v-625h733v-86h-832zM356 1593l252 238h74l252 -238l-103 -18l-192 170l-184 -174z" />
<glyph unicode="&#xcb;" d="M229 0v1483h815v-86h-716v-598h669v-88h-669v-625h733v-86h-832zM354 1692q0 40 24.5 63t67.5 23q40 0 65.5 -23.5t25.5 -62.5q0 -40 -25 -63t-66 -23q-43 0 -67.5 22.5t-24.5 63.5zM745 1692q0 39 25.5 62.5t67.5 23.5q40 0 65 -23.5t25 -62.5q0 -40 -24.5 -63 t-65.5 -23q-42 0 -67.5 22.5t-25.5 63.5z" />
<glyph unicode="&#xcc;" horiz-adv-x="557" d="M66 1866h149l215 -267l-88 -28zM229 0v1483h99v-1483h-99z" />
<glyph unicode="&#xcd;" horiz-adv-x="557" d="M137 1599l213 267h150l-277 -295zM229 0v1483h99v-1483h-99z" />
<glyph unicode="&#xce;" horiz-adv-x="557" d="M-6 1593l252 238h73l252 -238l-102 -18l-193 170l-184 -174zM229 0v1483h99v-1483h-99z" />
<glyph unicode="&#xcf;" horiz-adv-x="557" d="M-8 1692q0 40 24.5 63t67.5 23q40 0 65 -23.5t25 -62.5q0 -40 -24.5 -63t-65.5 -23q-43 0 -67.5 22.5t-24.5 63.5zM229 0v1483h99v-1483h-99zM383 1692q0 39 25 62.5t67 23.5q40 0 65 -23.5t25 -62.5q0 -40 -24.5 -63t-65.5 -23q-42 0 -67 22.5t-25 63.5z" />
<glyph unicode="&#xd0;" horiz-adv-x="1517" d="M35 715v86h194v682h410q374 0 554.5 -188t180.5 -531q0 -173 -46.5 -311.5t-139 -240.5t-241 -157t-343.5 -55h-375v715h-194zM328 84h293q313 0 481 172t168 498q0 183 -44 310.5t-130 199.5t-199 103.5t-266 31.5h-303v-598h534v-86h-534v-631z" />
<glyph unicode="&#xd1;" horiz-adv-x="1525" d="M229 0v1483h158l815 -1374v1374h94v-1483h-133l-837 1399v-1399h-97zM465 1585q-7 59 3.5 102t34.5 65.5t52.5 33t60.5 10.5q53 0 112 -23t112 -46t90 -23q45 0 66.5 23t21.5 96l78 -4q7 -60 -4 -103t-36 -65t-54 -31.5t-64 -9.5q-50 0 -109.5 23.5t-115 47t-95.5 23.5 q-81 0 -79 -123z" />
<glyph unicode="&#xd2;" horiz-adv-x="1599" d="M143 745q0 222 78 393.5t232.5 271t365.5 99.5q156 0 278.5 -56.5t200 -156t118 -232t40.5 -288.5q0 -369 -173.5 -585t-491.5 -216q-160 0 -284.5 57.5t-203.5 161.5t-119.5 243.5t-40.5 307.5zM248 743q0 -320 151.5 -502t399.5 -182q122 0 223 45t175 131t115.5 219 t41.5 302q0 314 -147.5 491.5t-391.5 177.5q-121 0 -224.5 -46t-179.5 -131t-119.5 -215t-43.5 -290zM598 1866h150l215 -267l-89 -28z" />
<glyph unicode="&#xd3;" horiz-adv-x="1599" d="M143 745q0 222 78 393.5t232.5 271t365.5 99.5q156 0 278.5 -56.5t200 -156t118 -232t40.5 -288.5q0 -369 -173.5 -585t-491.5 -216q-160 0 -284.5 57.5t-203.5 161.5t-119.5 243.5t-40.5 307.5zM248 743q0 -320 151.5 -502t399.5 -182q122 0 223 45t175 131t115.5 219 t41.5 302q0 314 -147.5 491.5t-391.5 177.5q-121 0 -224.5 -46t-179.5 -131t-119.5 -215t-43.5 -290zM670 1599l213 267h149l-276 -295z" />
<glyph unicode="&#xd4;" horiz-adv-x="1599" d="M143 745q0 222 78 393.5t232.5 271t365.5 99.5q156 0 278.5 -56.5t200 -156t118 -232t40.5 -288.5q0 -369 -173.5 -585t-491.5 -216q-160 0 -284.5 57.5t-203.5 161.5t-119.5 243.5t-40.5 307.5zM248 743q0 -320 151.5 -502t399.5 -182q122 0 223 45t175 131t115.5 219 t41.5 302q0 314 -147.5 491.5t-391.5 177.5q-121 0 -224.5 -46t-179.5 -131t-119.5 -215t-43.5 -290zM526 1593l252 238h74l252 -238l-103 -18l-192 170l-184 -174z" />
<glyph unicode="&#xd5;" horiz-adv-x="1599" d="M143 745q0 222 78 393.5t232.5 271t365.5 99.5q156 0 278.5 -56.5t200 -156t118 -232t40.5 -288.5q0 -369 -173.5 -585t-491.5 -216q-160 0 -284.5 57.5t-203.5 161.5t-119.5 243.5t-40.5 307.5zM248 743q0 -320 151.5 -502t399.5 -182q122 0 223 45t175 131t115.5 219 t41.5 302q0 314 -147.5 491.5t-391.5 177.5q-121 0 -224.5 -46t-179.5 -131t-119.5 -215t-43.5 -290zM500 1585q-7 59 3.5 102t34.5 65.5t52.5 33t60.5 10.5q53 0 112 -23t112 -46t90 -23q45 0 66.5 23t21.5 96l77 -4q7 -60 -3.5 -103t-35.5 -65t-54 -31.5t-64 -9.5 q-50 0 -109.5 23.5t-115 47t-95.5 23.5q-82 0 -80 -123z" />
<glyph unicode="&#xd6;" horiz-adv-x="1599" d="M143 745q0 222 78 393.5t232.5 271t365.5 99.5q156 0 278.5 -56.5t200 -156t118 -232t40.5 -288.5q0 -369 -173.5 -585t-491.5 -216q-160 0 -284.5 57.5t-203.5 161.5t-119.5 243.5t-40.5 307.5zM248 743q0 -320 151.5 -502t399.5 -182q122 0 223 45t175 131t115.5 219 t41.5 302q0 314 -147.5 491.5t-391.5 177.5q-121 0 -224.5 -46t-179.5 -131t-119.5 -215t-43.5 -290zM524 1692q0 40 24.5 63t67.5 23q40 0 65.5 -23.5t25.5 -62.5q0 -40 -25 -63t-66 -23q-43 0 -67.5 22.5t-24.5 63.5zM915 1692q0 39 25.5 62.5t67.5 23.5q40 0 65 -23.5 t25 -62.5q0 -40 -24.5 -63t-65.5 -23q-42 0 -67.5 22.5t-25.5 63.5z" />
<glyph unicode="&#xd7;" d="M276 424l234 233l-229 230l69 69l230 -229l233 234l68 -68l-234 -234l240 -239l-70 -70l-239 240l-234 -234z" />
<glyph unicode="&#xd8;" horiz-adv-x="1599" d="M143 745q0 222 78 393.5t232.5 271t365.5 99.5q126 0 232 -39l65 156h105l-82 -194q156 -89 236.5 -260.5t80.5 -395.5q0 -369 -173.5 -585t-491.5 -216q-130 0 -242 39l-66 -157h-108l84 200q-156 90 -236 269.5t-80 418.5zM248 743q0 -207 65.5 -358.5t184.5 -234.5 l518 1239q-88 36 -201 36q-121 0 -224.5 -46t-179.5 -131t-119.5 -215t-43.5 -290zM586 100q96 -41 213 -41q122 0 223 45t175 131t115.5 219t41.5 302q0 207 -66 356t-186 229z" />
<glyph unicode="&#xd9;" horiz-adv-x="1470" d="M221 467v1016h98v-1008q0 -220 108.5 -314.5t309.5 -94.5q101 0 174.5 20t128.5 66t83 125.5t28 193.5v1012h98v-1016q0 -244 -133.5 -368t-390.5 -124q-262 0 -383 125.5t-121 366.5zM522 1866h150l215 -267l-88 -28z" />
<glyph unicode="&#xda;" horiz-adv-x="1470" d="M221 467v1016h98v-1008q0 -220 108.5 -314.5t309.5 -94.5q101 0 174.5 20t128.5 66t83 125.5t28 193.5v1012h98v-1016q0 -244 -133.5 -368t-390.5 -124q-262 0 -383 125.5t-121 366.5zM594 1599l213 267h149l-276 -295z" />
<glyph unicode="&#xdb;" horiz-adv-x="1470" d="M221 467v1016h98v-1008q0 -220 108.5 -314.5t309.5 -94.5q101 0 174.5 20t128.5 66t83 125.5t28 193.5v1012h98v-1016q0 -244 -133.5 -368t-390.5 -124q-262 0 -383 125.5t-121 366.5zM451 1593l251 238h74l252 -238l-102 -18l-193 170l-184 -174z" />
<glyph unicode="&#xdc;" horiz-adv-x="1470" d="M221 467v1016h98v-1008q0 -220 108.5 -314.5t309.5 -94.5q101 0 174.5 20t128.5 66t83 125.5t28 193.5v1012h98v-1016q0 -244 -133.5 -368t-390.5 -124q-262 0 -383 125.5t-121 366.5zM449 1692q0 40 24.5 63t67.5 23q40 0 65 -23.5t25 -62.5q0 -40 -24.5 -63t-65.5 -23 q-43 0 -67.5 22.5t-24.5 63.5zM840 1692q0 39 25 62.5t67 23.5q40 0 65 -23.5t25 -62.5q0 -40 -24.5 -63t-65.5 -23q-42 0 -67 22.5t-25 63.5z" />
<glyph unicode="&#xdd;" horiz-adv-x="1101" d="M8 1483h111l442 -787h2l430 787h101l-486 -887v-596h-98v588zM418 1599l213 267h149l-276 -295z" />
<glyph unicode="&#xde;" horiz-adv-x="1253" d="M229 0v1483h95v-269h333q110 0 196.5 -23t141.5 -61.5t91 -93.5t50.5 -114t14.5 -127q0 -124 -39 -213.5t-113.5 -142t-174 -77t-230.5 -24.5h-268v-338h-97zM326 426h270q83 0 144.5 7.5t122 31t99 63.5t62 108t23.5 161q0 162 -100 247.5t-318 85.5h-303v-704z" />
<glyph unicode="&#xdf;" horiz-adv-x="1351" d="M190 0v1100q0 127 33 219t94.5 146.5t142 80t183.5 25.5q214 0 321 -92.5t107 -264.5q0 -131 -67 -219t-177 -127v-6q94 -15 165 -45t125.5 -80.5t83 -127.5t28.5 -179q0 -213 -105.5 -333t-289.5 -120q-170 0 -262.5 76t-120.5 242l100 20q21 -114 85 -179.5t193 -65.5 q139 0 216 89t77 249q0 389 -448 389h-88v94h28q95 0 166 27t110 72.5t58 97t19 108.5q0 281 -324 281q-68 0 -119.5 -10.5t-97 -38t-74 -72.5t-45 -116t-16.5 -167v-1073h-101z" />
<glyph unicode="&#xe0;" horiz-adv-x="1097" d="M147 258q0 86 30.5 150t78.5 101t118 59.5t136.5 30t146.5 7.5q52 0 142 -4v92q0 158 -52 220.5t-196 62.5q-126 0 -186 -47t-78 -148l-97 17q24 140 115 201t254 61q185 0 263.5 -78t78.5 -270v-566q0 -46 13 -66t51 -20q19 0 63 13l8 -66q-49 -24 -110 -24 q-63 0 -92.5 39t-26.5 92q-63 -63 -154.5 -101.5t-197.5 -38.5q-76 0 -134 20.5t-90 50.5t-52 70.5t-26 74t-6 67.5zM254 268q0 -45 10 -80.5t33 -65t66.5 -45.5t105.5 -16q96 0 186.5 41t145.5 107v307q-71 6 -160 6q-86 0 -150 -10.5t-120.5 -37t-86.5 -78.5t-30 -128z M340 1538h147l232 -338l-84 -29z" />
<glyph unicode="&#xe1;" horiz-adv-x="1097" d="M147 258q0 86 30.5 150t78.5 101t118 59.5t136.5 30t146.5 7.5q52 0 142 -4v92q0 158 -52 220.5t-196 62.5q-126 0 -186 -47t-78 -148l-97 17q24 140 115 201t254 61q185 0 263.5 -78t78.5 -270v-566q0 -46 13 -66t51 -20q19 0 63 13l8 -66q-49 -24 -110 -24 q-63 0 -92.5 39t-26.5 92q-63 -63 -154.5 -101.5t-197.5 -38.5q-76 0 -134 20.5t-90 50.5t-52 70.5t-26 74t-6 67.5zM254 268q0 -45 10 -80.5t33 -65t66.5 -45.5t105.5 -16q96 0 186.5 41t145.5 107v307q-71 6 -160 6q-86 0 -150 -10.5t-120.5 -37t-86.5 -78.5t-30 -128z M406 1200l231 338h147l-292 -367z" />
<glyph unicode="&#xe2;" horiz-adv-x="1097" d="M147 258q0 86 30.5 150t78.5 101t118 59.5t136.5 30t146.5 7.5q52 0 142 -4v92q0 158 -52 220.5t-196 62.5q-126 0 -186 -47t-78 -148l-97 17q24 140 115 201t254 61q185 0 263.5 -78t78.5 -270v-566q0 -46 13 -66t51 -20q19 0 63 13l8 -66q-49 -24 -110 -24 q-63 0 -92.5 39t-26.5 92q-63 -63 -154.5 -101.5t-197.5 -38.5q-76 0 -134 20.5t-90 50.5t-52 70.5t-26 74t-6 67.5zM254 268q0 -45 10 -80.5t33 -65t66.5 -45.5t105.5 -16q96 0 186.5 41t145.5 107v307q-71 6 -160 6q-86 0 -150 -10.5t-120.5 -37t-86.5 -78.5t-30 -128z M268 1198l238 338h102l250 -338l-96 -12l-207 264l-195 -270z" />
<glyph unicode="&#xe3;" horiz-adv-x="1097" d="M147 258q0 86 30.5 150t78.5 101t118 59.5t136.5 30t146.5 7.5q52 0 142 -4v92q0 158 -52 220.5t-196 62.5q-126 0 -186 -47t-78 -148l-97 17q24 140 115 201t254 61q185 0 263.5 -78t78.5 -270v-566q0 -46 13 -66t51 -20q19 0 63 13l8 -66q-49 -24 -110 -24 q-63 0 -92.5 39t-26.5 92q-63 -63 -154.5 -101.5t-197.5 -38.5q-76 0 -134 20.5t-90 50.5t-52 70.5t-26 74t-6 67.5zM240 1221q-7 59 3.5 102t34.5 65.5t52.5 33t60.5 10.5q53 0 112 -23t112 -46.5t90 -23.5q45 0 66.5 23t21.5 96l77 -4q7 -60 -3.5 -103t-35.5 -65 t-54 -31.5t-64 -9.5q-50 0 -109.5 23.5t-115 47t-95.5 23.5q-82 0 -80 -122zM254 268q0 -45 10 -80.5t33 -65t66.5 -45.5t105.5 -16q96 0 186.5 41t145.5 107v307q-71 6 -160 6q-86 0 -150 -10.5t-120.5 -37t-86.5 -78.5t-30 -128z" />
<glyph unicode="&#xe4;" horiz-adv-x="1097" d="M147 258q0 86 30.5 150t78.5 101t118 59.5t136.5 30t146.5 7.5q52 0 142 -4v92q0 158 -52 220.5t-196 62.5q-126 0 -186 -47t-78 -148l-97 17q24 140 115 201t254 61q185 0 263.5 -78t78.5 -270v-566q0 -46 13 -66t51 -20q19 0 63 13l8 -66q-49 -24 -110 -24 q-63 0 -92.5 39t-26.5 92q-63 -63 -154.5 -101.5t-197.5 -38.5q-76 0 -134 20.5t-90 50.5t-52 70.5t-26 74t-6 67.5zM254 268q0 -45 10 -80.5t33 -65t66.5 -45.5t105.5 -16q96 0 186.5 41t145.5 107v307q-71 6 -160 6q-86 0 -150 -10.5t-120.5 -37t-86.5 -78.5t-30 -128z M268 1362q0 40 24.5 63t67.5 23q40 0 65.5 -23.5t25.5 -62.5q0 -40 -25 -63t-66 -23q-43 0 -67.5 22.5t-24.5 63.5zM659 1362q0 39 25.5 62.5t67.5 23.5q40 0 65 -23.5t25 -62.5q0 -40 -24.5 -63t-65.5 -23q-42 0 -67.5 22.5t-25.5 63.5z" />
<glyph unicode="&#xe5;" horiz-adv-x="1097" d="M147 258q0 86 30.5 150t78.5 101t118 59.5t136.5 30t146.5 7.5q52 0 142 -4v92q0 158 -52 220.5t-196 62.5q-126 0 -186 -47t-78 -148l-97 17q24 140 115 201t254 61q185 0 263.5 -78t78.5 -270v-566q0 -46 13 -66t51 -20q19 0 63 13l8 -66q-49 -24 -110 -24 q-63 0 -92.5 39t-26.5 92q-63 -63 -154.5 -101.5t-197.5 -38.5q-76 0 -134 20.5t-90 50.5t-52 70.5t-26 74t-6 67.5zM254 268q0 -45 10 -80.5t33 -65t66.5 -45.5t105.5 -16q96 0 186.5 41t145.5 107v307q-71 6 -160 6q-86 0 -150 -10.5t-120.5 -37t-86.5 -78.5t-30 -128z M350 1368q0 98 59 150.5t148 52.5q93 0 151 -47.5t58 -143.5q0 -93 -56 -146.5t-153 -53.5q-94 0 -150.5 50.5t-56.5 137.5zM440 1372q0 -54 30 -84.5t87 -30.5q56 0 84.5 33.5t28.5 89.5q0 113 -113 113q-53 0 -85 -31.5t-32 -89.5z" />
<glyph unicode="&#xe6;" horiz-adv-x="1787" d="M147 258q0 86 30 150t77.5 101.5t116.5 60.5t135 30.5t145 7.5q54 0 148 -4v146q0 111 -57 169t-193 58q-123 0 -182.5 -47.5t-79.5 -147.5l-97 19q24 139 115.5 199.5t257.5 60.5q136 0 212.5 -51t105.5 -152q132 203 383 203q104 0 182 -33t124 -92.5t68.5 -135 t22.5 -167.5q0 -58 -10 -133h-752q3 -101 23 -176.5t52 -123t78.5 -77t96.5 -40.5t113 -11q127 0 193 52.5t93 162.5l97 -21q-16 -77 -54.5 -134.5t-92 -91t-115 -49.5t-130.5 -16q-254 0 -364 168q-91 -84 -204.5 -126t-231.5 -42q-76 0 -133.5 20.5t-89.5 50.5t-51.5 70.5 t-25.5 74t-6 67.5zM254 272q0 -45 9.5 -80t32 -65.5t67 -47t108.5 -16.5q104 0 202.5 43.5t170.5 120.5q-42 118 -45 289q-86 4 -150 4q-63 0 -112.5 -4.5t-105 -19.5t-92 -41t-61 -72.5t-24.5 -110.5zM901 594h655v14q0 172 -72 266.5t-224 94.5q-68 0 -129 -22t-111.5 -66 t-82.5 -117.5t-36 -169.5z" />
<glyph unicode="&#xe7;" horiz-adv-x="1085" d="M123 516q0 271 126 408t357 137q155 0 258.5 -88t110.5 -250l-109 -12q-14 134 -80 198t-192 64q-55 0 -105 -12.5t-99 -44.5t-84.5 -81t-57 -127t-21.5 -178q0 -107 20.5 -189.5t54 -133t81 -82t95.5 -43.5t104 -12q257 0 299 237l102 -20q-19 -105 -79 -176.5 t-138 -102.5t-172 -33l-8 -63q75 -8 123.5 -49t48.5 -121q0 -81 -55.5 -133.5t-139.5 -52.5q-97 0 -153 49l30 69q18 -14 51 -26.5t66 -12.5q52 0 79.5 30t27.5 73q0 55 -38 83t-128 29l16 130q-391 39 -391 536z" />
<glyph unicode="&#xe8;" horiz-adv-x="1112" d="M123 520q0 139 39 245.5t106.5 169.5t151 94.5t180.5 31.5q101 0 177 -32.5t121.5 -91.5t68 -134.5t22.5 -167.5q0 -76 -10 -135h-750q3 -125 31 -211.5t79 -132.5t111 -65t140 -19q121 0 190 53.5t97 161.5l96 -19q-36 -150 -141 -221.5t-250 -71.5q-129 0 -221.5 43.5 t-143 122t-72.5 171.5t-22 208zM229 588h656q5 190 -67 285.5t-230 95.5q-68 0 -127.5 -21.5t-110 -65t-82.5 -119t-39 -175.5zM369 1538h147l232 -338l-84 -29z" />
<glyph unicode="&#xe9;" horiz-adv-x="1112" d="M123 520q0 139 39 245.5t106.5 169.5t151 94.5t180.5 31.5q101 0 177 -32.5t121.5 -91.5t68 -134.5t22.5 -167.5q0 -76 -10 -135h-750q3 -125 31 -211.5t79 -132.5t111 -65t140 -19q121 0 190 53.5t97 161.5l96 -19q-36 -150 -141 -221.5t-250 -71.5q-129 0 -221.5 43.5 t-143 122t-72.5 171.5t-22 208zM229 588h656q5 190 -67 285.5t-230 95.5q-68 0 -127.5 -21.5t-110 -65t-82.5 -119t-39 -175.5zM434 1200l232 338h147l-293 -367z" />
<glyph unicode="&#xea;" horiz-adv-x="1112" d="M123 520q0 139 39 245.5t106.5 169.5t151 94.5t180.5 31.5q101 0 177 -32.5t121.5 -91.5t68 -134.5t22.5 -167.5q0 -76 -10 -135h-750q3 -125 31 -211.5t79 -132.5t111 -65t140 -19q121 0 190 53.5t97 161.5l96 -19q-36 -150 -141 -221.5t-250 -71.5q-129 0 -221.5 43.5 t-143 122t-72.5 171.5t-22 208zM229 588h656q5 190 -67 285.5t-230 95.5q-68 0 -127.5 -21.5t-110 -65t-82.5 -119t-39 -175.5zM297 1198l238 338h102l250 -338l-96 -12l-207 264l-195 -270z" />
<glyph unicode="&#xeb;" horiz-adv-x="1112" d="M123 520q0 139 39 245.5t106.5 169.5t151 94.5t180.5 31.5q101 0 177 -32.5t121.5 -91.5t68 -134.5t22.5 -167.5q0 -76 -10 -135h-750q3 -125 31 -211.5t79 -132.5t111 -65t140 -19q121 0 190 53.5t97 161.5l96 -19q-36 -150 -141 -221.5t-250 -71.5q-129 0 -221.5 43.5 t-143 122t-72.5 171.5t-22 208zM229 588h656q5 190 -67 285.5t-230 95.5q-68 0 -127.5 -21.5t-110 -65t-82.5 -119t-39 -175.5zM297 1362q0 40 24.5 63t67.5 23q40 0 65 -23.5t25 -62.5q0 -40 -24.5 -63t-65.5 -23q-43 0 -67.5 22.5t-24.5 63.5zM688 1362q0 39 25 62.5 t67 23.5q40 0 65 -23.5t25 -62.5q0 -40 -24.5 -63t-65.5 -23q-42 0 -67 22.5t-25 63.5z" />
<glyph unicode="&#xec;" horiz-adv-x="483" d="M29 1538h147l232 -338l-84 -29zM197 0v1040h100v-1040h-100z" />
<glyph unicode="&#xed;" horiz-adv-x="483" d="M94 1200l232 338h147l-293 -367zM197 0v1040h100v-1040h-100z" />
<glyph unicode="&#xee;" horiz-adv-x="483" d="M-43 1198l238 338h102l250 -338l-96 -12l-207 264l-195 -270zM197 0v1040h100v-1040h-100z" />
<glyph unicode="&#xef;" horiz-adv-x="483" d="M-43 1362q0 40 24.5 63t67.5 23q40 0 65 -23.5t25 -62.5q0 -40 -24.5 -63t-65.5 -23q-43 0 -67.5 22.5t-24.5 63.5zM197 0v1040h100v-1040h-100zM348 1362q0 39 25 62.5t67 23.5q40 0 65 -23.5t25 -62.5q0 -40 -24.5 -63t-65.5 -23q-42 0 -67 22.5t-25 63.5z" />
<glyph unicode="&#xf0;" horiz-adv-x="1163" d="M102 518q0 105 30.5 196t88.5 161t149.5 110.5t204.5 40.5q187 0 334 -115q-59 265 -213 416l-231 -127l-41 72l205 114q-133 88 -324 115q6 15 18.5 40t16.5 34q225 -27 381 -141l207 112l45 -71l-185 -101q126 -135 189 -322t63 -405q0 -78 -7.5 -149.5t-26 -151 t-53.5 -143.5t-85 -116.5t-126.5 -82t-172.5 -29.5q-239 0 -353 141t-114 402zM215 516q0 -72 9.5 -133.5t34 -120.5t63 -100.5t101 -66.5t144.5 -25q85 0 150.5 33t105.5 86.5t65 129.5t34.5 152.5t9.5 165.5q0 71 -6 141q-45 61 -142 106.5t-198 45.5q-183 0 -277 -110.5 t-94 -303.5z" />
<glyph unicode="&#xf1;" horiz-adv-x="1183" d="M190 0v1040h89l6 -135q219 156 405 156q314 0 314 -361v-700h-101v696q0 136 -52.5 204.5t-178.5 68.5q-102 0 -210 -52t-171 -110v-807h-101zM283 1221q-7 59 3.5 102t34.5 65.5t52.5 33t60.5 10.5q53 0 112 -23t112 -46.5t90 -23.5q45 0 66.5 23t21.5 96l77 -4 q7 -60 -3.5 -103t-35.5 -65t-54 -31.5t-64 -9.5q-50 0 -109.5 23.5t-115 47t-95.5 23.5q-82 0 -80 -122z" />
<glyph unicode="&#xf2;" horiz-adv-x="1171" d="M123 516q0 256 127 400.5t358 144.5q224 0 332.5 -137.5t108.5 -380.5q0 -131 -26.5 -233.5t-81.5 -178.5t-145.5 -116t-213.5 -40q-126 0 -217 41t-143 116t-75.5 170t-23.5 214zM223 524q0 -456 367 -456q352 0 352 462q0 237 -86.5 338t-255.5 101q-173 0 -275 -111.5 t-102 -333.5zM385 1538h147l232 -338l-84 -29z" />
<glyph unicode="&#xf3;" horiz-adv-x="1171" d="M123 516q0 256 127 400.5t358 144.5q224 0 332.5 -137.5t108.5 -380.5q0 -131 -26.5 -233.5t-81.5 -178.5t-145.5 -116t-213.5 -40q-126 0 -217 41t-143 116t-75.5 170t-23.5 214zM223 524q0 -456 367 -456q352 0 352 462q0 237 -86.5 338t-255.5 101q-173 0 -275 -111.5 t-102 -333.5zM451 1200l231 338h147l-292 -367z" />
<glyph unicode="&#xf4;" horiz-adv-x="1171" d="M123 516q0 256 127 400.5t358 144.5q224 0 332.5 -137.5t108.5 -380.5q0 -131 -26.5 -233.5t-81.5 -178.5t-145.5 -116t-213.5 -40q-126 0 -217 41t-143 116t-75.5 170t-23.5 214zM223 524q0 -456 367 -456q352 0 352 462q0 237 -86.5 338t-255.5 101q-173 0 -275 -111.5 t-102 -333.5zM313 1198l238 338h102l250 -338l-96 -12l-207 264l-194 -270z" />
<glyph unicode="&#xf5;" horiz-adv-x="1171" d="M123 516q0 256 127 400.5t358 144.5q224 0 332.5 -137.5t108.5 -380.5q0 -131 -26.5 -233.5t-81.5 -178.5t-145.5 -116t-213.5 -40q-126 0 -217 41t-143 116t-75.5 170t-23.5 214zM223 524q0 -456 367 -456q352 0 352 462q0 237 -86.5 338t-255.5 101q-173 0 -275 -111.5 t-102 -333.5zM285 1221q-7 59 3.5 102t34.5 65.5t52.5 33t60.5 10.5q53 0 112 -23t112 -46.5t90 -23.5q45 0 66.5 23t21.5 96l77 -4q7 -60 -3.5 -103t-35.5 -65t-54 -31.5t-64 -9.5q-50 0 -109.5 23.5t-115 47t-95.5 23.5q-82 0 -80 -122z" />
<glyph unicode="&#xf6;" horiz-adv-x="1171" d="M123 516q0 256 127 400.5t358 144.5q224 0 332.5 -137.5t108.5 -380.5q0 -131 -26.5 -233.5t-81.5 -178.5t-145.5 -116t-213.5 -40q-126 0 -217 41t-143 116t-75.5 170t-23.5 214zM223 524q0 -456 367 -456q352 0 352 462q0 237 -86.5 338t-255.5 101q-173 0 -275 -111.5 t-102 -333.5zM313 1362q0 40 25 63t68 23q40 0 65 -23.5t25 -62.5q0 -40 -24.5 -63t-65.5 -23q-43 0 -68 22.5t-25 63.5zM705 1362q0 39 25 62.5t67 23.5q40 0 65 -23.5t25 -62.5q0 -40 -24.5 -63t-65.5 -23q-42 0 -67 22.5t-25 63.5z" />
<glyph unicode="&#xf7;" d="M205 604v107h758v-107h-758zM459 358q0 109 108 109q111 0 111 -109q0 -106 -111 -106q-108 0 -108 106zM459 961q0 108 108 108q111 0 111 -108q0 -107 -111 -107q-108 0 -108 107z" />
<glyph unicode="&#xf8;" horiz-adv-x="1171" d="M123 516q0 256 127 400.5t358 144.5q86 0 156 -21l70 158h102l-88 -197q201 -119 201 -458q0 -131 -26.5 -233.5t-81.5 -178.5t-145.5 -116t-213.5 -40q-88 0 -176 25l-66 -147h-102l81 186q-196 123 -196 477zM223 524q0 -280 139 -389l363 817q-66 17 -125 17 q-173 0 -275 -111.5t-102 -333.5zM444 90q59 -22 146 -22q352 0 352 462q0 287 -133 381z" />
<glyph unicode="&#xf9;" horiz-adv-x="1189" d="M184 342v698h101v-696q0 -136 51 -204t176 -68q102 0 209 51.5t170 109.5v807h100v-1040h-88l-6 133q-103 -75 -196.5 -114t-206.5 -39q-165 0 -237.5 90t-72.5 272zM371 1538h147l232 -338l-84 -29z" />
<glyph unicode="&#xfa;" horiz-adv-x="1189" d="M184 342v698h101v-696q0 -136 51 -204t176 -68q102 0 209 51.5t170 109.5v807h100v-1040h-88l-6 133q-103 -75 -196.5 -114t-206.5 -39q-165 0 -237.5 90t-72.5 272zM436 1200l232 338h147l-293 -367z" />
<glyph unicode="&#xfb;" horiz-adv-x="1189" d="M184 342v698h101v-696q0 -136 51 -204t176 -68q102 0 209 51.5t170 109.5v807h100v-1040h-88l-6 133q-103 -75 -196.5 -114t-206.5 -39q-165 0 -237.5 90t-72.5 272zM299 1198l238 338h102l250 -338l-96 -12l-207 264l-195 -270z" />
<glyph unicode="&#xfc;" horiz-adv-x="1189" d="M184 342v698h101v-696q0 -136 51 -204t176 -68q102 0 209 51.5t170 109.5v807h100v-1040h-88l-6 133q-103 -75 -196.5 -114t-206.5 -39q-165 0 -237.5 90t-72.5 272zM299 1362q0 40 24.5 63t67.5 23q40 0 65 -23.5t25 -62.5q0 -40 -24.5 -63t-65.5 -23q-43 0 -67.5 22.5 t-24.5 63.5zM690 1362q0 39 25 62.5t67 23.5q40 0 65 -23.5t25 -62.5q0 -40 -24.5 -63t-65.5 -23q-42 0 -67 22.5t-25 63.5z" />
<glyph unicode="&#xfd;" horiz-adv-x="935" d="M-53 -420l20 84q73 -33 164 -33q71 0 124 45.5t97 165.5l60 158l-377 1040h106l326 -903h2l334 903h106q-342 -893 -475 -1235q-58 -145 -131 -203.5t-178 -58.5q-80 0 -178 37zM330 1200l231 338h148l-293 -367z" />
<glyph unicode="&#xfe;" horiz-adv-x="1187" d="M195 -434v1980h98v-639q175 154 383 154q84 0 151 -27.5t119.5 -86t80.5 -160t28 -240.5q0 -146 -34.5 -258.5t-96 -179.5t-139 -100.5t-169.5 -33.5q-158 0 -325 115v-524h-96zM295 190q159 -124 321 -124q117 0 193 63.5t108.5 170t32.5 257.5q0 223 -70 319.5 t-223 96.5q-101 0 -201 -49.5t-161 -114.5v-619z" />
<glyph unicode="&#xff;" horiz-adv-x="935" d="M-53 -420l20 84q73 -33 164 -33q71 0 124 45.5t97 165.5l60 158l-377 1040h106l326 -903h2l334 903h106q-342 -893 -475 -1235q-58 -145 -131 -203.5t-178 -58.5q-80 0 -178 37zM193 1362q0 40 24.5 63t67.5 23q40 0 65 -23.5t25 -62.5q0 -40 -24.5 -63t-65.5 -23 q-43 0 -67.5 22.5t-24.5 63.5zM584 1362q0 39 25 62.5t67 23.5q40 0 65 -23.5t25 -62.5q0 -40 -24.5 -63t-65.5 -23q-42 0 -67 22.5t-25 63.5z" />
<glyph unicode="&#x152;" horiz-adv-x="2281" d="M143 745q0 223 78 394t233 270.5t367 99.5q186 0 320.5 -77.5t214.5 -214.5v266h803v-86h-717v-598h669v-88h-669v-625h733v-86h-819v299q-177 -324 -565 -324q-161 0 -285.5 57.5t-203 161.5t-119 243t-40.5 308zM248 743q0 -319 152 -501.5t399 -182.5 q122 0 223.5 45.5t175.5 132t115 220.5t41 303q0 311 -148.5 488t-390.5 177q-121 0 -224.5 -46t-179.5 -131.5t-119.5 -215.5t-43.5 -289z" />
<glyph unicode="&#x153;" horiz-adv-x="1927" d="M123 516q0 255 128.5 400t362.5 145q288 0 385 -238q61 119 168 178.5t242 59.5q104 0 181.5 -33t123.5 -92.5t68 -135.5t22 -169q0 -77 -10 -131h-750q2 -101 22 -176.5t51.5 -123t78 -77t96.5 -40.5t113 -11q127 0 192.5 53t94.5 162l96 -19q-34 -148 -141 -220.5 t-254 -72.5q-299 0 -402 238q-110 -238 -403 -238q-127 0 -219.5 41t-145 116t-76.5 170t-24 214zM225 524q0 -456 369 -456q350 0 350 462q0 235 -86.5 337t-255.5 102q-173 0 -275 -112t-102 -333zM1044 588h656q5 189 -67 285t-230 96q-68 0 -128.5 -22.5t-111 -67 t-82.5 -119.5t-37 -172z" />
<glyph unicode="&#x178;" horiz-adv-x="1101" d="M8 1483h111l442 -787h2l430 787h101l-486 -887v-596h-98v588zM272 1692q0 40 25 63t68 23q40 0 65 -23.5t25 -62.5q0 -40 -24.5 -63t-65.5 -23q-43 0 -68 22.5t-25 63.5zM664 1692q0 39 25 62.5t67 23.5q40 0 65 -23.5t25 -62.5q0 -40 -24.5 -63t-65.5 -23 q-42 0 -67 22.5t-25 63.5z" />
<glyph unicode="&#x2c6;" horiz-adv-x="1024" d="M223 1198l238 338h102l250 -338l-96 -12l-207 264l-195 -270z" />
<glyph unicode="&#x2dc;" horiz-adv-x="1024" d="M195 1221q-7 59 3.5 102t34.5 65.5t52.5 33t60.5 10.5q42 0 88.5 -14.5t80.5 -32t74 -32t70 -14.5q46 0 67.5 23t21.5 96l77 -4q7 -60 -3.5 -103t-35.5 -65t-54 -31.5t-64 -9.5q-50 0 -109.5 23.5t-115 47t-95.5 23.5q-82 0 -80 -122z" />
<glyph unicode="&#x2000;" horiz-adv-x="933" />
<glyph unicode="&#x2001;" horiz-adv-x="1866" />
<glyph unicode="&#x2002;" horiz-adv-x="933" />
<glyph unicode="&#x2003;" horiz-adv-x="1866" />
<glyph unicode="&#x2004;" horiz-adv-x="622" />
<glyph unicode="&#x2005;" horiz-adv-x="466" />
<glyph unicode="&#x2006;" horiz-adv-x="311" />
<glyph unicode="&#x2007;" horiz-adv-x="311" />
<glyph unicode="&#x2008;" horiz-adv-x="233" />
<glyph unicode="&#x2009;" horiz-adv-x="373" />
<glyph unicode="&#x200a;" horiz-adv-x="103" />
<glyph unicode="&#x2010;" horiz-adv-x="651" d="M41 555v104h555v-104h-555z" />
<glyph unicode="&#x2011;" horiz-adv-x="651" d="M41 555v104h555v-104h-555z" />
<glyph unicode="&#x2012;" horiz-adv-x="651" d="M41 555v104h555v-104h-555z" />
<glyph unicode="&#x2013;" horiz-adv-x="1024" d="M0 539v79h1022v-79h-1022z" />
<glyph unicode="&#x2014;" horiz-adv-x="2048" d="M0 539v79h2046v-79h-2046z" />
<glyph unicode="&#x2018;" horiz-adv-x="344" d="M84 1147l158 432l84 -14l-109 -418h-133z" />
<glyph unicode="&#x2019;" horiz-adv-x="344" d="M59 1139l109 417h133l-158 -432z" />
<glyph unicode="&#x201a;" horiz-adv-x="319" d="M37 -252l108 418h134l-158 -432z" />
<glyph unicode="&#x201c;" horiz-adv-x="620" d="M84 1147l158 432l84 -14l-109 -418h-133zM358 1147l158 432l84 -14l-108 -418h-134z" />
<glyph unicode="&#x201d;" horiz-adv-x="620" d="M59 1139l109 417h133l-158 -432zM334 1139l108 417h133l-157 -432z" />
<glyph unicode="&#x201e;" horiz-adv-x="593" d="M37 -252l108 418h134l-158 -432zM309 -252l109 418h133l-158 -432z" />
<glyph unicode="&#x2022;" horiz-adv-x="706" d="M92 573q0 126 67.5 190t192.5 64q126 0 194 -64t68 -190t-68 -190t-194 -64q-125 0 -192.5 64t-67.5 190z" />
<glyph unicode="&#x2026;" horiz-adv-x="1208" d="M111 76q0 49 27 73.5t75 24.5q104 0 104 -98q0 -101 -104 -101q-48 0 -75 25.5t-27 75.5zM512 76q0 49 27 73.5t75 24.5q105 0 105 -98q0 -101 -105 -101q-48 0 -75 25.5t-27 75.5zM891 76q0 49 27 73.5t75 24.5q105 0 105 -98q0 -101 -105 -101q-48 0 -75 25.5t-27 75.5 z" />
<glyph unicode="&#x202f;" horiz-adv-x="373" />
<glyph unicode="&#x2039;" horiz-adv-x="569" d="M145 535l183 301h110l-172 -299l172 -326h-112z" />
<glyph unicode="&#x203a;" horiz-adv-x="569" d="M121 211l180 303l-176 322h111l180 -320l-183 -305h-112z" />
<glyph unicode="&#x205f;" horiz-adv-x="466" />
<glyph unicode="&#x20ac;" horiz-adv-x="1206" d="M-4 524l14 86h154q-2 33 -2 103q0 47 4 133h-135l14 86h129q75 577 563 577q189 0 302.5 -101.5t125.5 -305.5l-94 -12q-22 174 -99.5 251.5t-240.5 77.5q-88 0 -158.5 -24t-120 -66t-85 -104.5t-55.5 -133.5t-31 -159h528l-16 -86h-521q-4 -43 -4 -131q0 -72 2 -105h484 l-17 -86h-458q25 -227 126.5 -341.5t296.5 -114.5q154 0 244 68t119 218l90 -26q-13 -75 -44.5 -135t-74.5 -100t-98.5 -67t-114.5 -39t-123 -12q-77 0 -141.5 13t-131 49.5t-116 96t-87 159t-52.5 231.5h-176z" />
<glyph unicode="&#x2122;" horiz-adv-x="1671" d="M33 1399v84h653v-84h-280v-686h-95v686h-278zM805 713v770h115l254 -629l262 629h102v-770h-86v596l-246 -596h-71l-240 598v-598h-90z" />
<glyph unicode="&#x25fc;" horiz-adv-x="1044" d="M0 0v1044h1044v-1044h-1044z" />
</font>
</defs>
</svg>
